HIERARCHY
ROOT Hips
{
	OFFSET -10.056300 472.549988 7.733724
	CHANNELS 6 Xposition Yposition Zposition Zrotation Xrotation Yrotation
	JOINT Spine
	{
		OFFSET 0.000000 0.000000 0.000000
		CHANNELS 6 Xposition Yposition Zposition Zrotation Xrotation Yrotation
		JOINT Spine1
		{
			OFFSET 19.000000 0.000000 0.000000
			CHANNELS 3 Zrotation Xrotation Yrotation
			JOINT Neck
			{
				OFFSET 22.500000 0.000000 0.600001
				CHANNELS 6 Xposition Yposition Zposition Zrotation Xrotation Yrotation
				JOINT Head
				{
					OFFSET 14.000000 0.000000 0.030878
					CHANNELS 6 Xposition Yposition Zposition Zrotation Xrotation Yrotation
					End Site
					{
						OFFSET 17.000000 0.000000 0.000000
					}
				}
			}
			JOINT LeftShoulder
			{
				OFFSET 19.799999 -4.299988 3.700000
				CHANNELS 6 Xposition Yposition Zposition Zrotation Xrotation Yrotation
				JOINT LeftArm
				{
					OFFSET 8.000000 0.000000 0.000000
					CHANNELS 6 Xposition Yposition Zposition Zrotation Xrotation Yrotation
					JOINT LeftForeArm
					{
						OFFSET 15.200001 0.000000 0.000000
						CHANNELS 6 Xposition Yposition Zposition Zrotation Xrotation Yrotation
						JOINT LeftHand
						{
							OFFSET 17.799999 0.000000 0.000000
							CHANNELS 6 Xposition Yposition Zposition Zrotation Xrotation Yrotation
							End Site
							{
								OFFSET 7.199997 0.000000 0.000000
							}
						}
					}
				}
			}
			JOINT RightShoulder
			{
				OFFSET 19.799999 4.299988 3.699999
				CHANNELS 6 Xposition Yposition Zposition Zrotation Xrotation Yrotation
				JOINT RightArm
				{
					OFFSET 8.000000 -0.151642 0.000000
					CHANNELS 6 Xposition Yposition Zposition Zrotation Xrotation Yrotation
					JOINT RightForeArm
					{
						OFFSET 15.200001 0.000000 0.000000
						CHANNELS 6 Xposition Yposition Zposition Zrotation Xrotation Yrotation
						JOINT RightHand
						{
							OFFSET 17.799999 0.000000 0.000000
							CHANNELS 6 Xposition Yposition Zposition Zrotation Xrotation Yrotation
							End Site
							{
								OFFSET 7.199997 0.000000 0.000000
							}
						}
					}
				}
			}
		}
	}
	JOINT LeftUpLeg
	{
		OFFSET 5.984250 -4.788788 -7.665999
		CHANNELS 6 Xposition Yposition Zposition Zrotation Xrotation Yrotation
		JOINT LeftLeg
		{
			OFFSET 16.000000 0.000000 0.000000
			CHANNELS 6 Xposition Yposition Zposition Zrotation Xrotation Yrotation
			JOINT LeftFoot
			{
				OFFSET 18.000000 0.000000 0.000000
				CHANNELS 6 Xposition Yposition Zposition Zrotation Xrotation Yrotation
				End Site
				{
					OFFSET 0.000000 0.000000 -10.800000
				}
			}
		}
	}
	JOINT RightUpLeg
	{
		OFFSET 5.984250 4.788788 -7.665980
		CHANNELS 6 Xposition Yposition Zposition Zrotation Xrotation Yrotation
		JOINT RightLeg
		{
			OFFSET 16.000000 0.000000 0.000000
			CHANNELS 6 Xposition Yposition Zposition Zrotation Xrotation Yrotation
			JOINT RightFoot
			{
				OFFSET 18.000000 0.000000 0.000000
				CHANNELS 6 Xposition Yposition Zposition Zrotation Xrotation Yrotation
				End Site
				{
					OFFSET 0.000000 0.000000 -10.800000
				}
			}
		}
	}
	JOINT Tail
	{
		OFFSET 6.836960 0.000000 -0.722574
		CHANNELS 6 Xposition Yposition Zposition Zrotation Xrotation Yrotation
		JOINT Tail1
		{
			OFFSET 12.000000 0.000000 0.000000
			CHANNELS 6 Xposition Yposition Zposition Zrotation Xrotation Yrotation
			End Site
			{
				OFFSET 11.999999 0.000000 0.000000
			}
		}
	}
}
MOTION
Frames: 4
Frame Time: 0.041667
24.921917 25.485321 47.253029 82.799890 3.364088 -0.228798 -0.000005 -0.000006 0.000002 5.408581 -1.510465 178.782346 15.107337 -1.447940 -4.335423 22.499992 0.000054 0.600006 5.521734 5.076467 -1.240647 13.999982 0.000017 0.030961 88.433840 74.337593 -95.378893 19.799999 -4.299989 3.699975 16.877754 -125.526678 60.773930 7.999994 -0.000014 -0.000014 -38.663095 137.033757 -45.354369 15.199991 0.000019 0.000000 12.747368 3.114492 67.592221 17.799994 0.000025 0.000003 -10.019755 1.802085 -1.604465 19.800016 4.300017 3.699967 -14.513034 -43.505269 -74.200334 8.000047 -0.151641 0.000000 -61.514521 0.084493 -52.501957 15.200007 0.000026 -0.000001 16.918353 -8.061184 57.485604 17.799995 0.000046 0.000003 6.758309 1.036623 14.086109 5.984240 -4.788751 -7.666008 16.639329 -5.766718 129.979552 15.999989 0.000050 -0.000008 15.218210 -6.806187 -68.463187 18.000006 0.000029 0.000002 -7.641016 2.270448 -48.032981 5.984250 4.788782 -7.665978 0.741456 -5.020453 115.631032 15.999993 -0.000002 0.000001 -1.163235 2.070408 -76.874865 17.999994 0.000042 0.000004 -0.491889 1.891736 -54.718063 6.836994 0.000007 -0.722562 -48.886041 20.553424 66.270593 11.999992 0.000031 -0.000042 0.306870 -49.864790 3.434039 
24.978706 25.130707 47.217030 82.589609 3.711854 -0.147279 -0.000003 0.000056 -0.000004 5.248147 -1.434264 178.995271 14.401307 -1.456291 -5.037044 22.499992 0.000062 0.600005 4.949155 5.408799 -1.289180 13.999972 -0.000006 0.030958 88.198028 74.644829 -95.516050 19.799999 -4.300030 3.699982 16.824067 -125.366824 60.747593 7.999999 -0.000011 0.000039 -39.845927 138.275636 -44.874749 15.200005 0.000028 -0.000005 8.219183 3.141620 65.979689 17.799994 0.000042 0.000002 -8.658685 1.132450 0.924412 19.799995 4.299973 3.700022 -14.506407 -43.048299 -74.360201 8.000038 -0.151617 -0.000002 -61.379673 -0.092053 -52.639472 15.200008 0.000036 -0.000009 16.919924 -7.889793 57.689943 17.799995 0.000019 0.000000 6.757604 0.994599 13.676273 5.984241 -4.788700 -7.666009 16.668095 -6.062780 129.765152 15.999996 0.000013 -0.000011 14.928152 -6.845559 -69.093367 18.000000 0.000063 0.000001 -7.604736 2.230728 -47.691670 5.984247 4.788829 -7.665983 0.749271 -5.099386 115.908966 15.999993 0.000042 0.000002 -1.205425 2.143766 -77.927910 18.000000 0.000003 0.000003 -0.499628 1.863110 -54.639806 6.836972 0.000037 -0.722578 -48.318281 20.520748 65.917452 12.000001 0.000014 -0.000032 0.560864 -50.299740 3.669974 
25.035355 24.745544 47.182522 82.559632 3.871410 -0.094205 -0.000008 0.000053 -0.000001 5.134982 -1.337391 179.318147 13.997556 -1.564305 -5.893683 22.499994 0.000065 0.600009 4.260137 5.665261 -1.125908 13.999971 -0.000005 0.030965 88.481242 75.149491 -95.869922 19.800001 -4.300001 3.699980 16.763916 -125.294875 60.837772 8.000002 0.000021 0.000013 -40.695298 140.367819 -44.844918 15.200008 0.000038 -0.000003 5.149771 4.382818 65.975195 17.799994 0.000011 -0.000002 -8.464745 0.547034 4.146005 19.800009 4.300014 3.699966 -14.510704 -43.359103 -74.252633 8.000028 -0.151623 -0.000003 -61.801929 -0.063720 -52.475452 15.200008 0.000031 0.000000 16.732850 -7.891453 57.446713 17.799995 -0.000003 0.000000 6.804948 0.975325 13.622136 5.984231 -4.788760 -7.666012 16.516120 -6.082866 129.422891 15.999993 0.000050 -0.000009 14.996437 -6.593874 -69.552889 18.000004 0.000044 -0.000000 -7.583948 2.215097 -47.595473 5.984242 4.788815 -7.665982 0.753265 -5.071239 116.307248 16.000008 0.000027 0.000003 -1.258890 2.211811 -79.209192 17.999998 0.000021 0.000001 -0.513832 1.840629 -54.429019 6.836995 0.000008 -0.722554 -48.025362 20.535286 65.635618 11.999997 0.000040 -0.000021 0.917018 -50.630707 3.930294 
25.075428 24.364838 47.145535 82.536853 3.948076 0.031337 -0.000009 0.000014 -0.000001 4.940406 -1.181717 179.570263 13.354236 -1.682898 -6.782389 22.499990 0.000070 0.600007 3.842159 5.832789 -0.897808 13.999980 0.000015 0.030954 88.602518 75.474068 -96.057376 19.799999 -4.300029 3.699975 16.770484 -125.325229 60.853290 8.000017 -0.000007 -0.000015 -40.977952 141.711945 -44.732142 15.200009 0.000024 -0.000002 4.706681 4.501097 66.189615 17.799994 0.000031 0.000001 -8.744269 0.504979 4.533632 19.800009 4.299992 3.700000 -14.549684 -43.602203 -74.088694 8.000015 -0.151603 0.000002 -62.050165 0.199709 -52.404459 15.200015 0.000036 -0.000010 16.630689 -7.929735 57.272021 17.799999 0.000027 0.000004 6.657915 0.961933 13.578261 5.984220 -4.788716 -7.666005 16.321943 -6.042499 129.162579 15.999982 0.000045 -0.000008 14.663996 -6.484983 -70.315930 17.999998 0.000062 0.000001 -7.521714 2.187561 -47.401711 5.984243 4.788830 -7.665980 0.594244 -4.898587 116.678988 16.000004 0.000038 -0.000002 -1.277119 2.361147 -80.519878 18.000000 0.000020 0.000001 -0.546776 1.825468 -54.165767 6.836988 0.000043 -0.722553 -47.912995 20.589989 65.462678 11.999993 0.000027 -0.000031 1.271217 -50.979043 4.134203 
